<svg
    xmlns="http://www.w3.org/2000/svg"
    viewBox="0 0 203 238"
    id="vector">
    <path
        id="path"
        d="M 4.114 89.483 C 4.841 79.426 7.16 69.548 10.984 60.218 C 15.971 48.372 23.26 37.632 32.428 28.624 C 44.488 16.345 59.603 7.498 76.214 2.993 C 92.825 -1.511 110.34 -1.511 126.951 2.993 C 143.562 7.498 158.677 16.345 170.737 28.624 C 179.91 37.631 187.195 48.379 192.162 60.237 C 196.001 69.583 198.327 79.482 199.051 89.56 C 197.835 89.036 196.575 88.62 195.286 88.318 C 193.285 87.81 191.236 87.511 189.173 87.425 C 188.342 79.337 186.355 71.409 183.273 63.885 C 178.757 53.217 172.174 43.548 163.905 35.435 C 155.796 27.17 146.134 20.588 135.475 16.067 C 124.718 11.702 113.199 9.518 101.591 9.643 C 89.983 9.527 78.467 11.711 67.707 16.067 C 57.031 20.569 47.359 27.153 39.257 35.435 C 30.992 43.551 24.41 53.22 19.889 63.885 C 16.796 71.399 14.808 79.322 13.989 87.406 C 12.419 87.47 10.855 87.651 9.312 87.949 C 7.534 88.296 5.793 88.809 4.112 89.482 Z M 46.09 185.083 L 28.139 185.083 L 28.139 179.591 C 28.139 177.01 27.906 175.38 27.439 174.662 C 27.181 174.304 26.834 174.021 26.432 173.84 C 26.03 173.66 25.587 173.588 25.149 173.633 C 24.622 173.608 24.098 173.727 23.634 173.977 C 23.169 174.226 22.781 174.597 22.51 175.05 C 21.823 176.377 21.514 177.867 21.617 179.358 C 21.508 181.281 21.854 183.202 22.626 184.966 C 23.266 186.227 25.091 187.722 28.099 189.507 Q 40.999 197.163 44.342 202.082 C 46.574 205.362 47.699 210.621 47.699 217.918 C 47.699 223.218 47.059 227.118 45.836 229.618 Q 43.973 233.373 38.656 235.925 C 34.769 237.704 30.53 238.58 26.256 238.487 C 21.668 238.619 17.119 237.605 13.021 235.537 C 9.353 233.577 6.947 231.074 5.841 228.066 Q 4.153 223.525 4.153 215.161 L 4.153 210.309 L 22.084 210.309 L 22.084 219.333 C 22.084 222.128 22.336 223.913 22.841 224.709 C 23.145 225.123 23.552 225.451 24.022 225.659 C 24.492 225.866 25.008 225.947 25.519 225.893 C 26.09 225.925 26.659 225.801 27.165 225.535 C 27.671 225.268 28.095 224.868 28.391 224.379 C 29.097 222.995 29.419 221.447 29.323 219.896 C 29.323 215.51 28.723 212.657 27.538 211.296 C 26.315 209.938 23.307 207.706 18.495 204.562 C 15.152 202.466 11.956 200.145 8.928 197.615 C 7.211 195.936 5.891 193.893 5.066 191.638 C 3.945 188.523 3.425 185.224 3.533 181.915 C 3.533 176.229 4.251 172.057 5.707 169.437 C 7.311 166.668 9.78 164.5 12.732 163.266 C 16.447 161.691 20.458 160.93 24.492 161.034 C 28.892 160.915 33.267 161.743 37.32 163.46 Q 42.647 165.905 44.345 169.612 C 45.49 172.057 46.072 176.249 46.072 182.149 L 46.072 185.079 Z M 97.89 206.1 Q 97.89 217.307 97.366 221.936 C 97.021 225.087 95.838 228.088 93.94 230.627 C 92.043 233.165 89.5 235.15 86.576 236.374 C 83.092 237.817 79.346 238.524 75.576 238.45 C 71.911 238.507 68.271 237.841 64.864 236.49 C 61.902 235.308 59.311 233.354 57.359 230.833 C 55.407 228.311 54.166 225.312 53.764 222.149 C 53.415 219.102 53.221 213.727 53.221 206.08 L 53.221 193.365 C 53.132 188.068 53.313 182.77 53.764 177.491 C 54.109 174.34 55.292 171.339 57.19 168.8 C 59.087 166.262 61.63 164.277 64.554 163.053 C 68.045 161.617 71.795 160.918 75.569 161 C 79.234 160.945 82.873 161.611 86.281 162.96 C 89.243 164.138 91.835 166.091 93.784 168.614 C 95.733 171.136 96.969 174.137 97.362 177.3 C 97.711 180.347 97.905 185.7 97.905 193.369 L 97.905 206.1 Z M 78.577 181.683 Q 78.577 176.502 77.995 175.046 C 77.813 174.58 77.482 174.187 77.054 173.927 C 76.626 173.668 76.125 173.556 75.627 173.61 C 75.174 173.587 74.723 173.683 74.319 173.887 C 73.914 174.091 73.569 174.397 73.318 174.774 C 72.775 175.531 72.503 177.84 72.503 181.683 L 72.503 216.383 C 72.503 220.691 72.678 223.369 73.027 224.383 C 73.207 224.876 73.549 225.294 73.996 225.569 C 74.443 225.844 74.971 225.959 75.492 225.897 C 76.05 225.949 76.609 225.805 77.073 225.49 C 77.537 225.175 77.877 224.708 78.034 224.17 C 78.383 222.986 78.577 220.211 78.577 215.845 L 78.577 181.683 Z M 149.255 206.1 Q 149.255 217.307 148.731 221.936 C 148.387 225.089 147.202 228.093 145.301 230.633 C 143.399 233.172 140.851 235.155 137.922 236.374 C 134.438 237.819 130.693 238.526 126.922 238.45 C 123.257 238.505 119.618 237.839 116.21 236.49 C 113.166 235.296 110.516 233.272 108.564 230.649 C 106.688 228.167 105.497 225.236 105.11 222.149 C 104.761 219.102 104.567 213.727 104.567 206.08 L 104.567 193.365 C 104.567 185.894 104.742 180.615 105.091 177.491 C 105.426 174.411 106.564 171.473 108.391 168.972 C 110.311 166.354 112.907 164.308 115.901 163.053 C 119.391 161.613 123.143 160.914 126.918 161 C 130.583 160.945 134.222 161.611 137.63 162.96 C 140.592 164.138 143.184 166.091 145.133 168.613 C 147.082 171.136 148.318 174.136 148.711 177.3 C 149.06 180.347 149.254 185.7 149.254 193.369 L 149.254 206.1 Z M 129.926 181.687 Q 129.926 176.506 129.344 175.05 C 129.163 174.588 128.836 174.197 128.413 173.938 C 127.99 173.678 127.494 173.563 127 173.61 C 126.547 173.585 126.095 173.68 125.69 173.884 C 125.285 174.088 124.94 174.395 124.691 174.774 C 124.148 175.531 123.876 177.84 123.876 181.683 L 123.876 216.383 C 123.876 220.691 124.051 223.369 124.419 224.383 C 124.594 224.879 124.935 225.301 125.384 225.576 C 125.832 225.852 126.362 225.965 126.884 225.897 C 127.44 225.951 127.998 225.808 128.46 225.492 C 128.921 225.177 129.256 224.708 129.407 224.17 C 129.756 222.986 129.95 220.211 129.95 215.845 L 129.95 181.683 Z M 199.595 162.61 L 199.595 236.898 L 182.673 236.898 L 172.62 203.127 L 172.62 236.894 L 156.474 236.894 L 156.474 162.606 L 172.62 162.606 L 183.468 196.063 L 183.468 162.606 Z M 31.167 121.329 L 17.99 121.329 L 17.99 112.5 C 18.099 110.883 17.955 109.259 17.563 107.687 C 17.382 107.357 17.105 107.09 16.769 106.92 C 16.433 106.75 16.054 106.686 15.681 106.736 C 15.257 106.672 14.825 106.752 14.452 106.963 C 14.079 107.174 13.787 107.504 13.624 107.9 C 13.236 109.539 13.086 111.225 13.178 112.907 L 13.178 136.466 C 13.087 138.09 13.238 139.718 13.624 141.298 C 13.784 141.677 14.065 141.993 14.423 142.196 C 14.78 142.4 15.195 142.48 15.603 142.424 C 16.003 142.475 16.408 142.392 16.755 142.188 C 17.103 141.984 17.373 141.671 17.524 141.298 C 17.942 139.564 18.1 137.778 17.99 135.998 L 17.99 129.633 L 31.167 129.633 L 31.167 131.593 C 31.167 136.833 30.779 140.559 30.061 142.752 C 29.126 145.18 27.385 147.215 25.132 148.516 C 22.318 150.244 19.058 151.107 15.758 151 C 12.441 151.128 9.145 150.399 6.191 148.885 C 3.847 147.668 2.065 145.588 1.223 143.085 Q 0 139.387 0 131.925 L 0 117.118 C -0.048 114.37 0.075 111.622 0.369 108.89 C 0.655 106.967 1.43 105.149 2.62 103.611 C 3.953 101.842 5.736 100.46 7.782 99.611 C 10.182 98.601 12.767 98.106 15.37 98.156 C 18.724 98.031 22.05 98.809 25 100.409 C 27.273 101.638 29.04 103.632 29.987 106.037 Q 31.18 109.414 31.187 116.516 L 31.187 121.329 Z M 66.567 128.917 Q 66.567 136.573 66.218 139.746 C 65.984 141.899 65.176 143.95 63.878 145.683 C 62.58 147.416 60.84 148.769 58.84 149.6 C 56.46 150.582 53.904 151.064 51.33 151.017 C 48.827 151.054 46.341 150.599 44.014 149.678 C 41.935 148.859 40.126 147.473 38.794 145.678 C 37.521 143.988 36.711 141.994 36.446 139.895 C 36.136 136.249 36.013 132.589 36.077 128.93 L 36.077 120.275 Q 36.077 112.619 36.426 109.446 C 36.664 107.298 37.474 105.252 38.77 103.523 C 40.067 101.793 41.804 100.443 43.8 99.613 C 46.179 98.629 48.736 98.147 51.31 98.196 C 53.813 98.156 56.3 98.611 58.626 99.535 C 60.702 100.36 62.51 101.745 63.846 103.535 C 65.127 105.22 65.938 107.217 66.194 109.318 C 66.427 111.394 66.563 115.062 66.563 120.283 L 66.563 128.919 Z M 53.387 112.266 C 53.484 110.748 53.353 109.224 53 107.744 C 52.878 107.424 52.654 107.152 52.363 106.97 C 52.073 106.788 51.731 106.705 51.389 106.735 C 51.08 106.722 50.773 106.788 50.498 106.928 C 50.222 107.068 49.988 107.277 49.817 107.535 C 49.448 108.059 49.254 109.635 49.254 112.251 L 49.254 135.9 C 49.164 137.726 49.288 139.556 49.623 141.353 C 49.742 141.689 49.972 141.975 50.276 142.162 C 50.579 142.35 50.938 142.427 51.292 142.382 C 51.674 142.425 52.059 142.329 52.376 142.112 C 52.693 141.894 52.921 141.57 53.019 141.198 C 53.344 139.321 53.468 137.415 53.388 135.512 L 53.388 112.266 Z M 112.732 99.244 L 112.732 149.934 L 101.224 149.934 L 101.224 115.7 L 96.605 149.933 L 88.435 149.933 L 83.583 116.5 L 83.583 149.937 L 72.056 149.937 L 72.056 99.244 L 89.114 99.244 Q 89.871 103.814 90.705 110.015 L 92.505 122.92 L 95.513 99.244 Z M 131.75 99.244 L 131.75 149.934 L 118.573 149.934 L 118.573 99.244 Z M 167.05 99.244 L 167.05 149.934 L 155.484 149.934 L 148.614 126.899 L 148.614 149.934 L 137.591 149.934 L 137.591 99.244 L 148.614 99.244 L 156.027 122.066 L 156.027 99.244 Z M 203.165 117.894 L 189.989 117.894 L 189.989 113.294 C 190.083 111.468 189.959 109.638 189.62 107.841 C 189.487 107.482 189.237 107.178 188.911 106.977 C 188.585 106.777 188.2 106.691 187.82 106.735 C 187.478 106.701 187.133 106.774 186.834 106.944 C 186.535 107.114 186.296 107.374 186.151 107.686 C 185.747 109.256 185.597 110.881 185.705 112.499 L 185.705 136.815 C 185.606 138.329 185.757 139.85 186.151 141.315 C 186.284 141.661 186.527 141.953 186.843 142.146 C 187.159 142.339 187.53 142.422 187.898 142.382 C 188.312 142.416 188.727 142.319 189.082 142.103 C 189.438 141.888 189.716 141.565 189.877 141.182 C 190.321 139.632 190.498 138.017 190.401 136.408 L 190.401 130.392 L 187.723 130.392 L 187.723 122.692 L 203.151 122.692 L 203.151 149.9 L 194.86 149.9 L 193.637 146.271 C 192.853 147.733 191.686 148.954 190.26 149.803 C 188.774 150.614 187.101 151.022 185.408 150.987 C 183.234 150.994 181.094 150.439 179.198 149.376 C 177.416 148.435 175.901 147.059 174.793 145.376 C 173.813 143.862 173.171 142.154 172.911 140.369 C 172.609 137.767 172.479 135.148 172.523 132.529 L 172.523 117.467 C 172.409 113.937 172.669 110.404 173.299 106.929 C 174.027 104.444 175.625 102.301 177.799 100.894 C 180.618 98.96 183.99 97.992 187.405 98.138 C 190.768 98.01 194.099 98.838 197.011 100.525 C 199.27 101.79 201.031 103.79 202 106.192 C 202.9 109.278 203.293 112.489 203.164 115.701 L 203.164 117.894 Z M 101.457 27.227 L 111.277 44.188 L 105.669 44.188 L 105.669 75.666 L 128.53 75.666 L 128.53 70.057 L 145.491 79.857 L 130.626 88.457 L 128.526 88.457 L 128.526 84.049 L 97.3 84.069 L 97.3 75.782 L 97.281 75.782 L 97.281 44.188 L 91.676 44.188 L 101.457 27.227 Z"
        fill="#41215b"/>
</svg>
