<svg
    xmlns="http://www.w3.org/2000/svg"
    viewBox="0 0 951 669"
    id="vector">
    <defs>
        <clipPath id="clip_path_47">
            <path d="M 454.757 429.233 L 496.757 429.233 L 496.757 471.233 L 454.757 471.233 Z"/>
        </clipPath>
    </defs>
    <path
        id="path"
        d="M 658.884 93.803 C 845.495 121.443 937.832 278.626 949.692 389.521 C 964.174 524.93 901.326 596.471 784.022 587.183 C 656.838 577.112 510.58 563.322 352.709 587.183 C 194.838 611.044 76.732 632.883 18.753 487.753 C -39.226 342.623 37.005 66.245 250.598 17.659 C 407.969 -18.137 464.579 65.023 658.884 93.803 Z"
        fill="#bedea4"/>
    <path
        id="path_1"
        d="M 267.99 185.88 L 282.827 176.154 L 437.265 411.757 L 422.428 421.483 Z"
        fill="#e6e6e6"/>
    <path
        id="path_2"
        d="M 247.499 87.464 L 281.836 139.818 C 282.386 140.625 282.663 141.587 282.627 142.563 C 282.591 143.539 282.243 144.478 281.634 145.242 C 281.026 146.005 280.189 146.555 279.246 146.808 C 278.303 147.062 277.303 147.007 276.393 146.651 C 275.484 146.296 274.712 145.658 274.191 144.832 L 234.716 84.645 C 229.358 84.198 223.972 85.082 219.039 87.22 L 262.048 152.796 C 262.687 153.809 262.903 155.034 262.649 156.205 C 262.395 157.376 261.69 158.401 260.688 159.058 C 259.686 159.715 258.465 159.953 257.29 159.719 C 256.115 159.486 255.078 158.8 254.403 157.81 L 211.393 92.234 C 207.467 95.907 204.509 100.495 202.784 105.587 L 242.26 165.777 C 242.81 166.584 243.087 167.546 243.051 168.522 C 243.015 169.498 242.667 170.437 242.058 171.201 C 241.45 171.964 240.613 172.514 239.67 172.767 C 238.727 173.021 237.727 172.966 236.817 172.61 C 235.908 172.255 235.136 171.617 234.615 170.791 L 200.278 118.437 C 199.396 133.037 204.155 150.337 214.586 166.237 C 233.972 195.794 265.593 209.322 285.215 196.452 C 304.837 183.582 305.028 149.189 285.643 119.632 C 275.212 103.73 261.239 92.471 247.499 87.464 Z"
        fill="#e6e6e6"/>
    <path
        id="path_3"
        d="M 331.624 143.909 L 349.372 143.909 L 349.372 425.731 L 331.624 425.731 Z"
        fill="#e6e6e6"/>
    <path
        id="path_4"
        d="M 297.741 98.194 C 297.713 111.735 300.538 124.947 305.808 135.918 C 311.078 146.888 318.526 155.061 327.074 159.254 C 335.622 163.446 344.836 163.446 353.384 159.254 C 361.932 155.061 369.38 146.888 374.65 135.918 C 379.92 124.947 382.745 111.735 382.717 98.194 C 382.745 84.653 379.92 71.441 374.65 60.47 C 369.38 49.5 361.932 41.327 353.384 37.134 C 344.836 32.942 335.622 32.942 327.074 37.134 C 318.526 41.327 311.078 49.5 305.808 60.47 C 300.538 71.441 297.713 84.653 297.741 98.194 Z"
        fill="#e6e6e6"/>
    <path
        id="path_5"
        d="M 305.271 98.195 C 305.271 112.156 308.957 125.559 315.51 135.431 C 322.064 145.303 330.962 150.855 340.23 150.855 C 349.498 150.855 358.396 145.303 364.95 135.431 C 371.503 125.559 375.189 112.156 375.189 98.195 C 375.189 84.234 371.503 70.831 364.95 60.959 C 358.396 51.087 349.498 45.535 340.23 45.535 C 330.962 45.535 322.064 51.087 315.51 60.959 C 308.957 70.831 305.271 84.234 305.271 98.195 Z"
        fill="#cccccc"/>
    <path
        id="path_6"
        d="M 102.176 648.232 C 101.932 652.651 126.137 656.962 171.287 660.542 C 216.437 664.122 280.244 666.789 353.474 668.157 C 426.705 669.525 505.647 669.525 578.878 668.157 C 652.108 666.789 715.915 664.122 761.065 660.542 C 806.215 656.962 830.42 652.651 830.176 648.232 C 830.176 642.695 791.8 637.379 723.563 633.464 C 655.326 629.549 562.678 627.347 466.176 627.347 C 369.674 627.347 277.026 629.549 208.789 633.464 C 140.552 637.379 102.176 642.695 102.176 648.232 Z"
        fill="#e6e6e6"/>
    <path
        id="path_7"
        d="M 681.444 647.925 C 545.033 623.337 405.319 623.337 268.908 647.925 C 266.01 648.45 263.021 648.113 260.313 646.956 C 257.604 645.799 255.294 643.872 253.671 641.415 C 252.047 638.958 251.179 636.078 251.176 633.133 L 251.176 446.233 L 699.176 446.233 L 699.176 633.133 C 699.173 636.078 698.305 638.958 696.681 641.415 C 695.058 643.872 692.748 645.799 690.039 646.956 C 687.331 648.113 684.342 648.45 681.444 647.925 Z"
        fill="#ffffff"/>
    <path
        id="path_8"
        d="M 658.176 308.232 C 647.83 308.222 637.555 309.941 627.776 313.318 C 608.666 271.872 574.414 239.26 532.081 222.206 C 489.747 205.152 442.454 204.912 399.95 221.537 C 357.446 238.162 322.866 270.424 303.337 311.675 C 280.213 305.192 255.454 307.911 234.289 319.258 C 213.124 330.605 197.155 349.721 189.756 372.568 C 182.356 395.415 184.087 420.263 194.581 441.864 C 205.076 463.464 223.54 480.182 246.074 488.486 C 268.608 496.79 293.505 496.051 315.507 486.425 C 337.472 519.897 370.043 545.052 407.98 557.844 C 445.917 570.636 487.07 570.34 524.819 557.003 C 562.568 543.667 594.773 518.045 616.255 484.261 C 636.446 494.457 659.678 496.945 681.57 491.257 C 703.462 485.568 722.545 472.084 735.218 453.349 C 747.89 434.613 753.304 411.883 750.436 389.447 C 747.568 367.01 736.612 346.373 719.633 331.427 C 702.655 316.482 680.795 308.231 658.176 308.232 Z"
        fill="#ffffff"/>
    <path
        id="path_9"
        d="M 287.176 388.232 L 285.176 388.232 C 285.108 361.606 291.001 335.299 302.423 311.247 L 304.231 312.103 C 292.936 335.888 287.108 361.902 287.176 388.232 Z"
        fill="#6fab3e"/>
    <path
        id="path_10"
        d="M 645.176 388.232 L 643.176 388.232 C 643.238 362.509 637.676 337.081 626.882 313.732 L 628.698 312.894 C 639.614 336.505 645.238 362.22 645.176 388.232 Z"
        fill="#3f3d56"/>
    <path
        id="path_11"
        d="M 251.417 533.203 L 250.935 531.262 C 251.499 531.122 308.335 517.162 391.635 510.236 C 468.516 503.843 584.322 502.301 699.42 531.263 L 698.932 533.202 C 584.116 504.312 468.564 505.848 391.844 512.226 C 308.695 519.137 251.976 533.063 251.417 533.203 Z"
        fill="#6fab3e"/>
    <path
        id="path_12"
        d="M 251.417 560.203 L 250.935 558.262 C 251.499 558.122 308.335 544.162 391.635 537.236 C 468.516 530.843 584.322 529.301 699.42 558.263 L 698.932 560.202 C 584.116 531.312 468.564 532.85 391.844 539.226 C 308.695 546.137 251.976 560.063 251.417 560.203 Z"
        fill="#6fab3e"/>
    <path
        id="path_13"
        d="M 251.417 587.203 L 250.935 585.262 C 251.499 585.122 308.335 571.162 391.635 564.236 C 468.516 557.843 584.322 556.301 699.42 585.263 L 698.932 587.202 C 584.116 558.312 468.564 559.85 391.844 566.226 C 308.695 573.137 251.976 587.063 251.417 587.203 Z"
        fill="#6fab3e"/>
    <path
        id="path_14"
        d="M 619.443 440.388 L 595.213 432.15 L 618.476 313.421 L 602.484 311.967 C 586.89 323.931 566.124 328.622 539.484 325.051 L 582.129 389.504 L 560.384 404.853 L 491.016 321.648 C 487.89 317.899 486.176 313.169 486.176 308.287 L 486.176 308.287 C 486.176 303.761 487.649 299.356 490.37 295.739 C 493.092 292.123 496.918 289.489 501.267 288.236 L 575.345 266.899 L 662.09 276.591 C 675.205 296.585 675.717 310.491 655.754 314.502 Z"
        fill="#2f2e41"/>
    <path
        id="path_15"
        d="M 594.643 486.575 L 594.643 486.575 C 591.292 486.363 588.092 485.099 585.5 482.963 C 582.909 480.828 581.057 477.928 580.209 474.679 C 579.361 471.43 579.559 467.995 580.776 464.865 L 592.822 433.89 C 598.941 422.299 607.338 423.75 617.255 433.89 L 622.101 448.105 C 622.5 449.275 622.658 450.515 622.566 451.748 C 622.474 452.981 622.134 454.183 621.566 455.281 L 609.825 477.981 C 608.402 480.732 606.208 483.01 603.512 484.536 C 600.817 486.062 597.734 486.771 594.643 486.575 Z"
        fill="#2f2e41"/>
    <path
        id="path_16"
        d="M 563.328 446.013 L 563.328 446.013 C 559.977 445.801 556.777 444.536 554.185 442.401 C 551.594 440.265 549.742 437.365 548.894 434.116 C 548.046 430.867 548.245 427.432 549.462 424.302 L 561.508 393.326 C 567.627 381.735 576.024 383.186 585.941 393.326 L 590.787 407.541 C 591.186 408.711 591.344 409.951 591.252 411.184 C 591.16 412.417 590.82 413.619 590.252 414.717 L 578.511 437.417 C 577.088 440.169 574.895 442.449 572.199 443.976 C 569.503 445.503 566.42 446.212 563.328 446.017 Z"
        fill="#2f2e41"/>
    <path
        id="path_17"
        d="M 578.736 126.363 M 551.598 126.363 C 551.598 119.168 554.459 112.261 559.547 107.174 C 564.634 102.086 571.541 99.225 578.736 99.225 C 585.931 99.225 592.838 102.086 597.925 107.174 C 603.013 112.261 605.874 119.168 605.874 126.363 C 605.874 133.558 603.013 140.465 597.925 145.552 C 592.838 150.64 585.931 153.501 578.736 153.501 C 571.541 153.501 564.634 150.64 559.547 145.552 C 554.459 140.465 551.598 133.558 551.598 126.363"
        fill="#ffb9b9"/>
    <path
        id="path_18"
        d="M 620.897 164.647 L 583.582 184.032 L 575.828 149.14 L 601.512 133.148 Z"
        fill="#ffb9b9"/>
    <path
        id="path_19"
        d="M 665.965 281.437 C 628.731 270.191 594.947 264.364 570.497 273.199 C 578.924 249.491 563.37 213.288 546.267 176.278 C 553.647 166.631 565.413 162.894 578.736 161.255 C 593.313 171.839 603.477 165.046 611.205 148.655 C 628.059 147.978 644.305 153.947 660.15 164.162 C 647.76 203.848 649.99 242.928 665.965 281.437 Z"
        fill="#41215b"/>
    <path
        id="path_20"
        d="M 570.013 279.014 C 564.133 282.48 558.707 288.314 553.536 295.491 C 544.798 290.142 537.108 284.052 531.05 276.808 C 526.81 271.673 523.918 265.559 522.638 259.023 C 521.358 252.487 521.73 245.735 523.72 239.379 L 540.28 185.557 C 541.656 181.087 544.328 177.126 547.958 174.177 L 550.144 172.401 L 571.951 213.593 L 550.144 254.3 C 552.91 261.714 561.059 270.275 570.013 279.014 Z"
        fill="#6fab3e"/>
    <path
        id="path_21"
        d="M 577.519 320.05 L 577.519 320.05 C 574.874 321.257 571.918 321.611 569.063 321.062 C 566.208 320.513 563.593 319.088 561.584 316.986 C 559.576 314.884 558.271 312.208 557.852 309.331 L 554.252 284.657 L 566.852 277.873 L 582.843 298.807 C 584.553 301.043 585.549 303.744 585.701 306.554 C 585.852 309.365 585.153 312.157 583.695 314.565 C 582.236 316.972 580.085 318.884 577.523 320.051 Z"
        fill="#ffb9b9"/>
    <path
        id="path_22"
        d="M 606.116 125.175 L 601.482 125.313 L 588.629 107.105 C 572.16 108.805 558.664 115.963 547.244 126.923 L 546.086 119.203 C 544.982 111.844 546.741 104.335 550.999 98.232 C 555.257 92.13 561.698 87.887 568.986 86.384 L 568.986 86.384 C 574.105 85.328 579.415 85.671 584.356 87.376 C 589.297 89.081 593.688 92.086 597.067 96.074 C 600.446 100.062 602.688 104.887 603.558 110.041 Z"
        fill="#2f2e41"/>
    <path
        id="path_23"
        d="M 554.004 295.501 L 554.004 295.501 C 552.797 292.856 552.443 289.9 552.992 287.045 C 553.541 284.19 554.966 281.575 557.068 279.566 C 559.17 277.558 561.846 276.253 564.723 275.834 L 589.397 272.234 L 596.181 284.834 L 575.247 300.824 C 573.011 302.534 570.31 303.53 567.5 303.682 C 564.689 303.834 561.897 303.135 559.49 301.676 C 557.082 300.218 555.17 298.067 554.003 295.505 Z"
        fill="#ffb9b9"/>
    <path
        id="path_24"
        d="M 670.666 273.056 C 647.191 274.879 621.56 282.199 594.728 292.583 C 594.395 284.619 591.506 276.971 586.49 270.776 C 610.86 264.357 632.974 256.825 646.581 245.092 L 638.343 183.062 L 656.273 162.709 L 659.366 164.323 C 661.935 165.658 664.194 167.518 665.998 169.782 C 667.801 172.046 669.109 174.664 669.835 177.466 C 677.406 206.915 680.768 235.131 678.457 261.684 C 678.755 264.201 678.129 266.742 676.697 268.833 C 675.264 270.924 673.121 272.425 670.666 273.056 Z"
        fill="#6fab3e"/>
    <path
        id="path_25"
        d="M 164.325 530.258 C 164.325 530.524 164.536 530.779 164.912 530.967 C 165.288 531.154 165.798 531.26 166.329 531.26 C 166.86 531.26 167.37 531.154 167.746 530.967 C 168.122 530.779 168.333 530.524 168.333 530.258 C 168.333 529.992 168.122 529.737 167.746 529.549 C 167.37 529.362 166.86 529.256 166.329 529.256 C 165.798 529.256 165.288 529.362 164.912 529.549 C 164.536 529.737 164.325 529.992 164.325 530.258 Z"
        fill="#e6e6e6"/>
    <path
        id="path_26"
        d="M 173.786 530.258 C 173.786 530.524 173.997 530.779 174.373 530.967 C 174.749 531.154 175.259 531.26 175.79 531.26 C 176.321 531.26 176.831 531.154 177.207 530.967 C 177.583 530.779 177.794 530.524 177.794 530.258 C 177.794 529.992 177.583 529.737 177.207 529.549 C 176.831 529.362 176.321 529.256 175.79 529.256 C 175.259 529.256 174.749 529.362 174.373 529.549 C 173.997 529.737 173.786 529.992 173.786 530.258 Z"
        fill="#e6e6e6"/>
    <path
        id="path_27"
        d="M 169.056 532.623 C 169.056 532.889 169.267 533.144 169.643 533.332 C 170.019 533.519 170.529 533.625 171.06 533.625 C 171.591 533.625 172.101 533.519 172.477 533.332 C 172.853 533.144 173.064 532.889 173.064 532.623 C 173.064 532.357 172.853 532.102 172.477 531.914 C 172.101 531.727 171.591 531.621 171.06 531.621 C 170.529 531.621 170.019 531.727 169.643 531.914 C 169.267 532.102 169.056 532.357 169.056 532.623 Z"
        fill="#e6e6e6"/>
    <path
        id="path_28"
        d="M 150.134 532.623 C 150.133 532.835 150.266 533.042 150.514 533.214 C 150.763 533.385 151.114 533.513 151.518 533.579 C 151.921 533.645 152.355 533.645 152.758 533.579 C 153.162 533.513 153.513 533.385 153.762 533.214 C 154.01 533.042 154.143 532.835 154.142 532.623 C 154.143 532.411 154.01 532.204 153.762 532.032 C 153.513 531.861 153.162 531.733 152.758 531.667 C 152.355 531.601 151.921 531.601 151.518 531.667 C 151.114 531.733 150.763 531.861 150.514 532.032 C 150.266 532.204 150.133 532.411 150.134 532.623 Z"
        fill="#e6e6e6"/>
    <path
        id="path_29"
        d="M 154.864 530.258 C 154.864 530.524 155.075 530.779 155.451 530.967 C 155.827 531.154 156.337 531.26 156.868 531.26 C 157.399 531.26 157.909 531.154 158.285 530.967 C 158.661 530.779 158.872 530.524 158.872 530.258 C 158.872 529.992 158.661 529.737 158.285 529.549 C 157.909 529.362 157.399 529.256 156.868 529.256 C 156.337 529.256 155.827 529.362 155.451 529.549 C 155.075 529.737 154.864 529.992 154.864 530.258 Z"
        fill="#e6e6e6"/>
    <path
        id="path_30"
        d="M 159.595 533.806 C 159.595 534.072 159.806 534.327 160.182 534.515 C 160.558 534.702 161.068 534.808 161.599 534.808 C 162.13 534.808 162.64 534.702 163.016 534.515 C 163.392 534.327 163.603 534.072 163.603 533.806 C 163.603 533.54 163.392 533.285 163.016 533.097 C 162.64 532.91 162.13 532.804 161.599 532.804 C 161.068 532.804 160.558 532.91 160.182 533.097 C 159.806 533.285 159.595 533.54 159.595 533.806 Z"
        fill="#e6e6e6"/>
    <path
        id="path_31"
        d="M 769.325 530.258 C 769.325 530.524 769.536 530.779 769.912 530.967 C 770.288 531.154 770.798 531.26 771.329 531.26 C 771.86 531.26 772.37 531.154 772.746 530.967 C 773.122 530.779 773.333 530.524 773.333 530.258 C 773.333 529.992 773.122 529.737 772.746 529.549 C 772.37 529.362 771.86 529.256 771.329 529.256 C 770.798 529.256 770.288 529.362 769.912 529.549 C 769.536 529.737 769.325 529.992 769.325 530.258 Z"
        fill="#e6e6e6"/>
    <path
        id="path_32"
        d="M 778.786 530.258 C 778.786 530.524 778.997 530.779 779.373 530.967 C 779.749 531.154 780.259 531.26 780.79 531.26 C 781.321 531.26 781.831 531.154 782.207 530.967 C 782.583 530.779 782.794 530.524 782.794 530.258 C 782.794 529.992 782.583 529.737 782.207 529.549 C 781.831 529.362 781.321 529.256 780.79 529.256 C 780.259 529.256 779.749 529.362 779.373 529.549 C 778.997 529.737 778.786 529.992 778.786 530.258 Z"
        fill="#e6e6e6"/>
    <path
        id="path_33"
        d="M 774.055 532.623 C 774.055 532.889 774.266 533.144 774.642 533.332 C 775.018 533.519 775.528 533.625 776.059 533.625 C 776.59 533.625 777.1 533.519 777.476 533.332 C 777.852 533.144 778.063 532.889 778.063 532.623 C 778.063 532.357 777.852 532.102 777.476 531.914 C 777.1 531.727 776.59 531.621 776.059 531.621 C 775.528 531.621 775.018 531.727 774.642 531.914 C 774.266 532.102 774.055 532.357 774.055 532.623 Z"
        fill="#e6e6e6"/>
    <path
        id="path_34"
        d="M 755.133 532.623 C 755.133 532.889 755.344 533.144 755.72 533.332 C 756.096 533.519 756.606 533.625 757.137 533.625 C 757.668 533.625 758.178 533.519 758.554 533.332 C 758.93 533.144 759.141 532.889 759.141 532.623 C 759.141 532.357 758.93 532.102 758.554 531.914 C 758.178 531.727 757.668 531.621 757.137 531.621 C 756.606 531.621 756.096 531.727 755.72 531.914 C 755.344 532.102 755.133 532.357 755.133 532.623 Z"
        fill="#e6e6e6"/>
    <path
        id="path_35"
        d="M 759.864 530.258 C 759.863 530.47 759.996 530.677 760.244 530.849 C 760.493 531.02 760.844 531.148 761.248 531.214 C 761.651 531.28 762.085 531.28 762.488 531.214 C 762.892 531.148 763.243 531.02 763.492 530.849 C 763.74 530.677 763.873 530.47 763.872 530.258 C 763.873 530.046 763.74 529.839 763.492 529.667 C 763.243 529.496 762.892 529.368 762.488 529.302 C 762.085 529.236 761.651 529.236 761.248 529.302 C 760.844 529.368 760.493 529.496 760.244 529.667 C 759.996 529.839 759.863 530.046 759.864 530.258 Z"
        fill="#e6e6e6"/>
    <path
        id="path_36"
        d="M 764.594 533.806 C 764.593 534.018 764.726 534.225 764.974 534.397 C 765.223 534.568 765.574 534.696 765.978 534.762 C 766.381 534.828 766.815 534.828 767.218 534.762 C 767.622 534.696 767.973 534.568 768.222 534.397 C 768.47 534.225 768.603 534.018 768.602 533.806 C 768.603 533.594 768.47 533.387 768.222 533.215 C 767.973 533.044 767.622 532.916 767.218 532.85 C 766.815 532.784 766.381 532.784 765.978 532.85 C 765.574 532.916 765.223 533.044 764.974 533.215 C 764.726 533.387 764.593 533.594 764.594 533.806 Z"
        fill="#e6e6e6"/>
    <path
        id="path_37"
        d="M 817.78 121.947 C 829.206 121.947 840.177 126.491 848.256 134.571 C 856.336 142.65 860.88 153.621 860.88 165.047 C 860.88 176.473 856.336 187.444 848.256 195.523 C 840.177 203.603 829.206 208.147 817.78 208.147 C 806.354 208.147 795.383 203.603 787.304 195.523 C 779.224 187.444 774.68 176.473 774.68 165.047 C 774.68 153.621 779.224 142.65 787.304 134.571 C 795.383 126.491 806.354 121.947 817.78 121.947 Z"
        fill="#bedea4"/>
    <path
        id="path_38"
        d="M 836.277 176.158 C 834.182 174.334 831.864 172.786 829.377 171.549 C 827.312 170.557 826.553 170.575 825.091 171.631 C 823.875 172.493 823.091 173.325 821.691 173.019 C 820.291 172.713 817.526 170.626 814.849 167.957 C 812.172 165.288 810.094 162.538 809.796 161.119 C 809.498 159.7 810.318 158.929 811.189 157.713 C 812.241 156.251 812.271 155.493 811.271 153.427 C 810.029 150.942 808.479 148.624 806.658 146.527 C 805.145 145.018 804.817 145.35 803.989 145.665 C 803.137 146.022 802.319 146.455 801.544 146.958 C 800.283 147.68 799.263 148.759 798.612 150.058 C 798.021 151.317 797.353 153.658 800.789 159.772 C 803.324 164.452 806.534 168.734 810.317 172.478 L 810.317 172.478 C 814.074 176.269 818.37 179.486 823.066 182.023 C 829.18 185.472 831.521 184.787 832.78 184.2 C 834.084 183.556 835.165 182.534 835.88 181.268 C 836.384 180.494 836.817 179.676 837.173 178.823 C 837.454 177.999 837.79 177.663 836.277 176.158 Z"
        fill="#6fab3e"/>
    <path
        id="path_39"
        d="M 817.776 121.952 C 808.009 121.947 798.524 125.261 790.886 131.348 C 783.248 137.434 777.899 145.939 775.724 155.461 C 773.548 164.982 774.67 174.966 778.907 183.767 C 783.143 192.567 790.247 199.672 799.046 203.91 C 807.846 208.148 817.83 209.272 827.351 207.098 C 836.873 204.924 845.379 199.578 851.467 191.94 C 857.555 184.303 860.871 174.819 860.868 165.052 C 860.864 153.628 856.32 142.661 848.243 134.583 C 840.166 126.504 829.2 121.958 817.776 121.952 Z M 817.776 202.411 C 809.313 202.411 801.095 199.536 794.478 194.259 C 787.861 188.982 783.229 181.61 781.346 173.359 C 779.463 165.108 780.437 156.456 784.109 148.831 C 787.782 141.206 793.938 135.05 801.563 131.377 C 809.188 127.705 817.84 126.731 826.091 128.614 C 834.342 130.497 841.714 135.129 846.991 141.746 C 852.268 148.363 855.143 156.581 855.143 165.044 C 855.143 174.951 851.203 184.461 844.198 191.466 C 837.193 198.471 827.683 202.411 817.776 202.411 Z"
        fill="#000000"
        fill-opacity="0.1"
        stroke-opacity="0.1"/>
    <path
        id="path_40"
        d="M 466.471 0 C 477.897 0 488.868 4.544 496.947 12.624 C 505.027 20.703 509.571 31.674 509.571 43.1 C 509.571 54.526 505.027 65.497 496.947 73.576 C 488.868 81.656 477.897 86.2 466.471 86.2 C 455.045 86.2 444.074 81.656 435.995 73.576 C 427.915 65.497 423.371 54.526 423.371 43.1 C 423.371 31.674 427.915 20.703 435.995 12.624 C 444.074 4.544 455.045 0 466.471 0 Z"
        fill="#bedea4"/>
    <path
        id="path_41"
        d="M 490.984 30.086 L 478.084 43.214 C 478.054 43.243 478.032 43.28 478.021 43.32 C 478.01 43.361 478.01 43.403 478.021 43.444 C 478.032 43.484 478.054 43.521 478.084 43.55 L 487.138 53.177 C 487.392 53.404 487.564 53.709 487.629 54.043 C 487.693 54.378 487.646 54.724 487.495 55.03 C 487.343 55.335 487.096 55.582 486.791 55.734 C 486.485 55.885 486.139 55.932 485.804 55.868 C 485.47 55.803 485.165 55.631 484.938 55.377 L 475.932 45.784 C 475.886 45.739 475.824 45.713 475.76 45.713 C 475.695 45.713 475.633 45.739 475.587 45.784 L 473.392 48 C 472.493 48.919 471.42 49.649 470.235 50.147 C 469.05 50.645 467.777 50.901 466.492 50.9 C 465.183 50.894 463.887 50.627 462.682 50.115 C 461.477 49.603 460.386 48.856 459.473 47.917 L 457.36 45.767 C 457.314 45.722 457.252 45.696 457.188 45.696 C 457.123 45.696 457.061 45.722 457.015 45.767 L 448.03 55.338 C 447.803 55.592 447.498 55.764 447.164 55.829 C 446.829 55.893 446.483 55.846 446.177 55.695 C 445.872 55.543 445.625 55.296 445.473 54.991 C 445.322 54.685 445.275 54.339 445.339 54.004 C 445.404 53.67 445.576 53.365 445.83 53.138 L 454.849 43.532 C 454.889 43.485 454.911 43.426 454.911 43.364 C 454.911 43.302 454.889 43.243 454.849 43.196 L 441.949 30.068 C 441.916 30.035 441.874 30.012 441.827 30.003 C 441.781 29.994 441.734 29.998 441.69 30.016 C 441.647 30.034 441.61 30.065 441.584 30.104 C 441.558 30.143 441.544 30.189 441.544 30.236 L 441.544 56.505 C 441.547 57.52 441.953 58.494 442.67 59.212 C 443.388 59.929 444.362 60.335 445.377 60.338 L 487.577 60.338 C 488.592 60.335 489.566 59.929 490.284 59.212 C 491.001 58.494 491.407 57.52 491.41 56.505 L 491.41 30.254 C 491.412 30.205 491.399 30.157 491.373 30.115 C 491.346 30.074 491.308 30.042 491.262 30.024 C 491.217 30.005 491.167 30.001 491.119 30.013 C 491.072 30.024 491.029 30.049 490.996 30.086 Z"
        fill="#6fab3e"/>
    <path
        id="path_42"
        d="M 466.474 47.789 C 467.349 47.798 468.216 47.63 469.025 47.297 C 469.834 46.964 470.567 46.471 471.182 45.849 L 489.975 26.719 C 489.308 26.167 488.47 25.862 487.604 25.857 L 445.378 25.857 C 444.512 25.86 443.673 26.165 443.007 26.719 L 461.807 45.849 C 462.416 46.468 463.143 46.958 463.944 47.291 C 464.746 47.624 465.606 47.794 466.474 47.789 Z"
        fill="#6fab3e"/>
    <path
        id="path_43"
        d="M 465.924 0.004 C 456.157 0 446.673 3.314 439.035 9.401 C 431.397 15.488 426.049 23.994 423.874 33.515 C 421.699 43.037 422.822 53.02 427.059 61.82 C 431.295 70.62 438.399 77.725 447.199 81.963 C 455.999 86.2 465.982 87.324 475.504 85.15 C 485.026 82.975 493.531 77.629 499.619 69.991 C 505.707 62.354 509.022 52.87 509.019 43.103 C 509.015 31.679 504.47 20.712 496.393 12.633 C 488.315 4.555 477.348 0.009 465.924 0.004 Z M 465.924 80.463 C 456.017 80.463 446.507 76.523 439.502 69.518 C 432.497 62.513 428.557 53.003 428.557 43.096 C 428.557 33.189 432.497 23.679 439.502 16.674 C 446.507 9.669 456.017 5.729 465.924 5.729 C 475.831 5.729 485.341 9.669 492.346 16.674 C 499.351 23.679 503.291 33.189 503.291 43.096 C 503.291 53.003 499.351 62.513 492.346 69.518 C 485.341 76.523 475.831 80.463 465.924 80.463 Z"
        fill="#000000"
        fill-opacity="0.1"
        stroke-opacity="0.1"/>
    <path
        id="path_44"
        d="M 132.67 73.629 C 139.573 80.532 143.93 89.579 145.023 99.28 C 146.116 108.98 143.882 118.77 138.688 127.036 C 133.494 135.302 125.643 141.563 116.429 144.787 C 107.215 148.011 97.173 148.011 87.959 144.787 C 78.745 141.563 70.894 135.302 65.7 127.036 C 60.506 118.77 58.272 108.98 59.365 99.28 C 60.458 89.579 64.815 80.532 71.718 73.629 C 79.798 65.549 90.768 61.006 102.194 61.006 C 113.62 61.006 124.59 65.549 132.67 73.629 Z"
        fill="#bedea4"/>
    <path
        id="path_45"
        d="M 116.771 89.516 L 76.593 105.397 L 76.593 107.66 L 92.47 113.818 L 98.628 129.695 L 100.891 129.695 Z"
        fill="#6fab3e"/>
    <path
        id="path_46"
        d="M 132.677 73.617 C 124.599 65.54 113.632 60.998 102.208 60.999 C 90.785 61 79.818 65.543 71.741 73.621 C 63.664 81.699 59.122 92.666 59.122 104.089 C 59.122 115.512 63.665 126.479 71.742 134.557 C 79.82 142.634 90.787 147.177 102.21 147.177 C 113.633 147.177 124.6 142.635 132.678 134.558 C 140.756 126.481 145.299 115.514 145.3 104.091 C 145.301 92.667 140.759 81.7 132.682 73.622 Z M 75.784 130.51 C 81.55 124.747 89.377 121.508 97.529 121.509 C 105.68 121.511 113.506 124.754 119.269 130.519 C 125.033 136.284 128.274 144.111 128.273 152.262 C 128.273 160.414 125.031 168.24 119.266 174.004 C 113.502 179.769 105.676 183.011 97.524 183.011 C 89.373 183.012 81.546 179.771 75.781 174.007 C 70.016 168.244 66.773 160.418 66.771 152.267 C 66.77 144.115 70.009 136.288 75.772 130.522 Z"
        fill="#000000"
        fill-opacity="0.1"
        stroke-opacity="0.1"/>
    <g id="group">
        <path
            id="path_47"
            clip-path="url(#clip_path_47)"
            d="M 478.641 429.803 C 484.054 429.822 489.248 431.968 493.097 435.775 L 488.378 440.614 C 485.808 438.045 482.32 436.599 478.686 436.597 C 475.052 436.595 471.563 438.037 468.99 440.604 C 466.418 443.171 464.968 446.658 464.962 450.291 C 464.956 453.925 466.395 457.417 468.958 459.992 C 471.522 462.567 475.007 464.021 478.641 464.031 C 482.29 463.995 485.785 462.537 488.378 459.969 L 493.097 464.748 C 491.21 466.664 488.959 468.185 486.477 469.221 C 483.995 470.256 481.331 470.786 478.641 470.779 C 473.209 470.779 467.994 468.619 464.152 464.778 C 460.311 460.936 458.151 455.721 458.151 450.289 C 458.151 444.857 460.311 439.642 464.152 435.8 C 467.994 431.959 473.209 429.799 478.641 429.799 Z M 478.641 445.394 C 479.934 445.398 481.175 445.917 482.086 446.834 C 482.998 447.751 483.509 448.994 483.506 450.288 C 483.503 451.581 482.986 452.822 482.07 453.735 C 481.153 454.648 479.911 455.16 478.617 455.158 C 477.324 455.156 476.083 454.64 475.169 453.725 C 474.255 452.809 473.742 451.567 473.742 450.274 C 473.743 448.98 474.257 447.739 475.172 446.824 C 475.627 446.368 476.168 446.007 476.763 445.761 C 477.359 445.516 477.997 445.391 478.641 445.394 Z"
            fill="#41215b"/>
    </g>
</svg>
